<?xml version="1.0" encoding="utf-8"?>
<!-- Generator: Adobe Illustrator 18.0.0, SVG Export Plug-In . SVG Version: 6.00 Build 0)  -->
<!DOCTYPE svg PUBLIC "-//W3C//DTD SVG 1.1//EN" "http://www.w3.org/Graphics/SVG/1.1/DTD/svg11.dtd">
<svg version="1.1" id="Layer_1" xmlns="http://www.w3.org/2000/svg" xmlns:xlink="http://www.w3.org/1999/xlink" x="0px" y="0px"
	 viewBox="0 0 1000 509.1" style="enable-background:new 0 0 1000 509.1;" xml:space="preserve">
<style type="text/css">
	.st0{fill:#4e4b48;}
</style>
<g>
	<g>
		<path class="st0" d="M173.3,14L278,148.4L305.9,4.8C166.7-22.3,31.8,68.6,4.8,207.9l258,18.8L173.3,14z"/>
		<path class="st0" d="M88.4,450.8L251,287.2L4.8,207.9C-22.3,347.2,68.6,482,207.9,509.1l27.9-143.6L88.4,450.8z"/>
	</g>
	<g>
		<path class="st0" d="M414.1,145h-16.2l7.9-40.7h-41.7l-7.9,40.7H340l17.8-91.7H374l-7.4,38.1h41.7l7.4-38.1h16.2L414.1,145z"/>
		<path class="st0" d="M435.6,110.4c1.3-6.7,3.8-12.7,7.5-18c3.7-5.4,8.3-9.5,13.7-12.3c5.4-2.9,11.3-4.3,17.6-4.3
			c9.4,0,16.4,3,21.1,8.9c4.7,5.9,6.3,13.8,4.9,23.5l-0.6,3.6c-1.3,6.7-3.8,12.7-7.4,18c-3.7,5.3-8.2,9.4-13.7,12.3
			c-5.5,2.9-11.4,4.3-17.8,4.3c-9.8,0-17-3.2-21.6-9.6c-4.6-6.4-5.9-14.9-3.8-25.6L435.6,110.4z M450.9,111.7
			c-1.4,7-1,12.5,1.2,16.5c2.2,4,5.9,6,11.2,6c5.3,0,9.7-2,13.5-6c3.7-4,6.3-9.9,7.8-17.7c1.3-6.9,0.9-12.3-1.3-16.4
			c-2.2-4-5.9-6-11.1-6c-5.1,0-9.5,2-13.3,5.9C455.1,97.9,452.4,103.8,450.9,111.7z"/>
		<path class="st0" d="M549.9,138.4c-5.6,5.3-12.6,7.9-21,7.9c-7.5,0-12.8-2.2-15.8-6.5c-3-4.3-3.7-10.6-2.2-18.8l8.6-44.1H535
			l-8.5,43.9c-1.7,8.6,1.1,13,8.4,13c7.6,0,13.2-2.7,16.9-8l9.5-48.9h15.6L563.6,145H549L549.9,138.4z"/>
		<path class="st0" d="M622,126.5c0.5-2.7-0.2-4.8-2.2-6.2c-2-1.4-5.6-2.7-10.6-3.8c-5.1-1.1-9.2-2.5-12.5-4.2
			c-7.1-3.7-9.9-9-8.6-16.1c1.1-5.9,4.6-10.8,10.4-14.7c5.8-3.9,12.6-5.9,20.4-5.9c8.3,0,14.6,2,18.9,6c4.3,4,5.9,9.3,4.6,15.7
			h-15.6c0.6-2.9-0.1-5.4-1.9-7.3c-1.8-2-4.6-2.9-8.3-2.9c-3.4,0-6.4,0.8-8.8,2.3c-2.5,1.6-3.9,3.6-4.5,6.2
			c-0.5,2.3,0.2,4.2,1.9,5.5c1.8,1.3,5.6,2.6,11.4,3.9c5.9,1.3,10.3,2.9,13.5,4.7c3.1,1.8,5.3,4,6.5,6.6c1.2,2.6,1.4,5.7,0.7,9.3
			c-1.2,6.1-4.7,11.1-10.7,14.9c-5.9,3.8-13.1,5.7-21.4,5.7c-5.7,0-10.6-1-14.6-3c-4.1-2-7-4.8-8.8-8.3c-1.8-3.5-2.3-7.3-1.5-11.4
			h15.1c-0.5,3.6,0.4,6.4,2.5,8.3c2.2,2,5.4,2.9,9.6,2.9c4.1,0,7.4-0.8,9.8-2.3C620.1,131,621.5,129,622,126.5z"/>
		<path class="st0" d="M683.3,60.4l-3.2,16.6h12.2l-2.2,11.3h-12.2l-7.4,38c-0.5,2.6-0.3,4.5,0.5,5.6c0.8,1.2,2.6,1.7,5.3,1.7
			c1.8,0,3.7-0.2,5.6-0.6l-2.3,11.8c-3.7,1-7.3,1.4-10.5,1.4c-12,0-16.7-6.5-14.2-19.4l7.5-38.6h-11.4l2.2-11.3h11.4l3.2-16.6H683.3
			z"/>
		<path class="st0" d="M692.9,110.4c1.3-6.7,3.8-12.7,7.5-18c3.7-5.4,8.3-9.5,13.7-12.3c5.4-2.9,11.3-4.3,17.6-4.3
			c9.4,0,16.4,3,21.1,8.9c4.7,5.9,6.3,13.8,4.9,23.5l-0.6,3.6c-1.3,6.7-3.8,12.7-7.4,18c-3.7,5.3-8.2,9.4-13.7,12.3
			c-5.5,2.9-11.4,4.3-17.8,4.3c-9.8,0-17-3.2-21.6-9.6c-4.6-6.4-5.9-14.9-3.8-25.6L692.9,110.4z M708.2,111.7
			c-1.4,7-1,12.5,1.2,16.5c2.2,4,5.9,6,11.2,6s9.7-2,13.5-6c3.7-4,6.3-9.9,7.8-17.7c1.3-6.9,0.9-12.3-1.3-16.4c-2.2-4-5.9-6-11.1-6
			c-5.1,0-9.5,2-13.3,5.9C712.4,97.9,709.7,103.8,708.2,111.7z"/>
		<path class="st0" d="M791.5,76.9l-1.1,7.9c6.3-6.1,13.6-9.1,22-9.1c14.4,0,20.2,8.1,17.3,24.4l-8.7,45h-15.6l8.6-44.1
			c0.8-4.3,0.5-7.5-1-9.6c-1.5-2.1-4.4-3.1-8.7-3.1c-6.3,0-11.5,2.8-15.7,8.4l-9.4,48.5h-15.6l13.2-68.1H791.5z"/>
		<path class="st0" d="M399.4,220.9h-29.1l-15.3,78.8h-16.1l15.3-78.8h-28.9l2.5-12.8h74.1L399.4,220.9z"/>
		<path class="st0" d="M419.4,301c-9.9,0-17.3-3.1-22.2-9.2c-4.9-6.1-6.4-14.2-4.5-24.4l0.4-1.9c1.3-6.8,3.8-12.9,7.5-18.2
			c3.7-5.3,8.3-9.5,13.7-12.5c5.4-3,11.1-4.5,17-4.5c9.4,0,16.2,3,20.2,8.9c4,5.9,4.9,14.3,2.8,25.1l-1.2,6.2h-45.3
			c-0.6,5.6,0.4,10.1,3.1,13.3c2.7,3.3,6.6,4.9,11.7,4.9c7.1,0,13.5-2.8,19.1-8.5l6.9,7.9c-3.6,4.1-7.9,7.2-13,9.5
			C430.6,299.9,425.2,301,419.4,301z M428.9,242.6c-4.3,0-8,1.5-11.2,4.4c-3.2,2.9-5.7,7-7.4,12.3h29.7l0.2-1.1
			c0.7-5.1,0-9-1.9-11.6S433.2,242.6,428.9,242.6z"/>
		<path class="st0" d="M490.2,288.8c3.9,0,7.3-1.1,10.3-3.3c3-2.2,4.9-5,5.7-8.2h14.7c-1,4.2-3.1,8.2-6.3,11.9
			c-3.2,3.7-7.2,6.6-12,8.7c-4.7,2.1-9.6,3.2-14.6,3.2c-9.7,0-16.8-3.1-21.3-9.3c-4.5-6.2-5.7-14.7-3.6-25.6l0.3-1.6
			c2-10.4,6.4-18.7,13.3-24.9c6.9-6.2,15.2-9.3,24.9-9.3c8.2,0,14.5,2.4,18.8,7.1c4.3,4.7,5.8,10.9,4.6,18.6h-14.7
			c0.6-3.9-0.1-7.1-2.2-9.6c-2.1-2.5-5.1-3.8-9-3.8c-5,0-9.3,1.8-12.7,5.4c-3.4,3.6-5.9,9-7.3,16.3l-0.5,2.5
			c-1.4,7.4-1.2,12.9,0.9,16.5C481.5,287,485.1,288.8,490.2,288.8z"/>
		<path class="st0" d="M555.5,239.1c6.2-5.8,13.2-8.7,21-8.7c14.8,0,20.7,8.3,17.7,24.9l-8.7,44.5h-15.6l8.5-43.9
			c0.9-4.7,0.5-8-1.2-10c-1.7-1.9-4.6-2.9-8.6-2.9c-6.2,0-11.4,2.7-15.6,8.2l-9.5,48.7h-15.6l18.8-96.7h15.6L555.5,239.1z"/>
		<path class="st0" d="M628.9,231.6l-1.1,7.9c6.3-6.1,13.6-9.1,22-9.1c14.4,0,20.2,8.1,17.3,24.4l-8.7,45h-15.6l8.6-44.1
			c0.8-4.3,0.5-7.5-1-9.6c-1.5-2.1-4.4-3.1-8.7-3.1c-6.3,0-11.5,2.8-15.7,8.4l-9.4,48.5H601l13.2-68.1H628.9z"/>
		<path class="st0" d="M678.1,265.1c1.3-6.7,3.8-12.7,7.5-18c3.7-5.4,8.3-9.5,13.7-12.3c5.4-2.9,11.3-4.3,17.6-4.3
			c9.4,0,16.4,3,21.1,8.9c4.7,5.9,6.3,13.8,4.9,23.5l-0.6,3.6c-1.3,6.7-3.8,12.7-7.4,18c-3.7,5.3-8.2,9.4-13.7,12.3
			c-5.5,2.9-11.4,4.3-17.8,4.3c-9.8,0-17-3.2-21.6-9.6c-4.6-6.4-5.9-14.9-3.8-25.6L678.1,265.1z M693.4,266.4
			c-1.4,7-1,12.5,1.2,16.5c2.2,4,5.9,6,11.2,6c5.3,0,9.7-2,13.5-6c3.7-4,6.3-9.9,7.8-17.7c1.3-6.9,0.9-12.3-1.3-16.4
			c-2.2-4-5.9-6-11.1-6c-5.1,0-9.5,2-13.3,5.9C697.6,252.6,694.9,258.5,693.4,266.4z"/>
		<path class="st0" d="M765.6,299.7H750l18.8-96.7h15.6L765.6,299.7z"/>
		<path class="st0" d="M786.4,265.1c1.3-6.7,3.8-12.7,7.5-18c3.7-5.4,8.3-9.5,13.7-12.3c5.4-2.9,11.3-4.3,17.6-4.3
			c9.4,0,16.4,3,21.1,8.9c4.7,5.9,6.3,13.8,4.9,23.5l-0.6,3.6c-1.3,6.7-3.8,12.7-7.4,18c-3.7,5.3-8.2,9.4-13.7,12.3
			c-5.5,2.9-11.4,4.3-17.8,4.3c-9.8,0-17-3.2-21.6-9.6c-4.6-6.4-5.9-14.9-3.8-25.6L786.4,265.1z M801.7,266.4
			c-1.4,7-1,12.5,1.2,16.5c2.2,4,5.9,6,11.2,6s9.7-2,13.5-6c3.7-4,6.3-9.9,7.8-17.7c1.3-6.9,0.9-12.3-1.3-16.4c-2.2-4-5.9-6-11.1-6
			c-5.1,0-9.5,2-13.3,5.9C805.9,252.6,803.2,258.5,801.7,266.4z"/>
		<path class="st0" d="M861.3,265.2c2.1-10.6,6.2-19,12.5-25.3c6.3-6.3,13.6-9.5,22-9.5c7.9,0,13.6,2.7,17.1,8.1l2-6.9h14l-12.8,66
			c-1.7,8.9-5.9,16-12.6,21.1c-6.7,5.2-14.8,7.7-24.4,7.7c-5.1,0-9.9-1-14.3-3.1c-4.4-2.1-7.6-4.8-9.5-8.2l9.2-9.2
			c3.7,5.6,9.1,8.4,16.1,8.4c5.2,0,9.5-1.4,13-4.1c3.5-2.7,5.8-6.8,6.8-12.1l0.9-4.6c-5.4,4.9-11.9,7.4-19.4,7.4
			c-8.1,0-14.1-3.2-18.1-9.5C860,285.2,859.1,276.4,861.3,265.2z M876.6,266.5c-1.3,6.8-1,12.2,1.1,16.1c2.1,3.9,5.6,5.9,10.7,5.9
			c6.3,0,11.5-2.6,15.5-7.9l5.8-30c-1.9-5.2-6.1-7.7-12.3-7.7c-5.1,0-9.5,2-13.1,6C880.7,252.9,878.1,258.7,876.6,266.5z"/>
		<path class="st0" d="M960.3,277.8l23.1-46.2h16.6l-42.8,78.4c-6.5,11.5-14.8,17.2-24.9,17.2c-2.3,0-4.7-0.4-7.3-1.1l2.3-11.9
			l2.9,0.2c3.9,0,7-0.7,9.3-2.1c2.3-1.4,4.3-3.8,6.1-7.1l3.4-5.8l-11.2-67.7h16.8L960.3,277.8z"/>
		<path class="st0" d="M359.9,424.6c-2.8,9.8-8,17.4-15.5,22.9c-7.5,5.5-16.5,8.2-27.2,8.2c-7.4,0-13.7-1.7-18.6-5.2
			c-5-3.5-8.4-8.4-10.2-14.8c-1.8-6.4-2-13.8-0.5-22.2l1.7-8.6c1.7-8.6,4.7-16.3,9.1-22.9c4.4-6.6,9.9-11.7,16.4-15.2
			c6.5-3.6,13.6-5.4,21.3-5.4c10.3,0,18.1,2.7,23.3,8.2c5.2,5.5,7.4,13.2,6.4,23.3h-16.2c0.5-6.6-0.5-11.3-3.1-14.3
			c-2.6-2.9-6.9-4.4-13-4.4c-7.1,0-13,2.5-17.7,7.6c-4.8,5.1-8.1,12.5-10.1,22.3l-1.6,8.1c-1.9,9.9-1.6,17.5,1,22.7
			c2.6,5.2,7.4,7.8,14.4,7.8c6.4,0,11.4-1.4,15.2-4.2s6.7-7.5,8.8-14H359.9z"/>
		<path class="st0" d="M397.4,455.7c-9.9,0-17.3-3.1-22.2-9.2c-4.9-6.1-6.4-14.2-4.5-24.4l0.4-1.9c1.3-6.8,3.8-12.9,7.5-18.2
			c3.7-5.3,8.3-9.5,13.7-12.5c5.4-3,11.1-4.5,17-4.5c9.4,0,16.2,3,20.2,8.9c4,5.9,4.9,14.3,2.8,25.1l-1.2,6.2h-45.3
			c-0.6,5.6,0.4,10.1,3.1,13.3c2.7,3.3,6.6,4.9,11.7,4.9c7.1,0,13.5-2.8,19.1-8.5l6.9,7.9c-3.6,4.1-7.9,7.2-13,9.5
			C408.6,454.6,403.2,455.7,397.4,455.7z M406.9,397.3c-4.3,0-8,1.5-11.2,4.4c-3.2,2.9-5.7,7-7.4,12.3h29.7l0.2-1.1
			c0.6-5.1,0-9-1.9-11.6C414.3,398.7,411.2,397.3,406.9,397.3z"/>
		<path class="st0" d="M465.3,386.3l-1.1,7.9c6.3-6.1,13.6-9.1,22-9.1c14.4,0,20.2,8.1,17.3,24.4l-8.7,45h-15.6l8.6-44.1
			c0.8-4.3,0.5-7.5-1-9.6c-1.5-2.1-4.4-3.1-8.7-3.1c-6.3,0-11.5,2.8-15.7,8.4l-9.4,48.5h-15.6l13.2-68.1H465.3z"/>
		<path class="st0" d="M546.6,369.8l-3.2,16.6h12.2l-2.2,11.3h-12.2l-7.4,38c-0.5,2.6-0.3,4.5,0.5,5.6c0.8,1.2,2.6,1.7,5.3,1.7
			c1.8,0,3.7-0.2,5.6-0.6l-2.3,11.8c-3.7,1-7.3,1.4-10.5,1.4c-12,0-16.7-6.5-14.2-19.4l7.5-38.6h-11.4l2.2-11.3h11.4l3.2-16.6H546.6
			z"/>
		<path class="st0" d="M584.6,455.7c-9.9,0-17.3-3.1-22.2-9.2c-4.9-6.1-6.4-14.2-4.5-24.4l0.4-1.9c1.3-6.8,3.8-12.9,7.5-18.2
			c3.7-5.3,8.3-9.5,13.7-12.5c5.4-3,11.1-4.5,17-4.5c9.4,0,16.2,3,20.2,8.9c4,5.9,4.9,14.3,2.8,25.1l-1.2,6.2H573
			c-0.6,5.6,0.4,10.1,3.1,13.3c2.7,3.3,6.6,4.9,11.7,4.9c7.1,0,13.5-2.8,19.1-8.5l6.9,7.9c-3.6,4.1-7.9,7.2-13,9.5
			C595.8,454.6,590.3,455.7,584.6,455.7z M594.1,397.3c-4.3,0-8,1.5-11.2,4.4c-3.2,2.9-5.7,7-7.4,12.3h29.7l0.2-1.1
			c0.6-5.1,0-9-1.9-11.6C601.5,398.7,598.4,397.3,594.1,397.3z"/>
		<path class="st0" d="M671.6,400.3c-2-0.3-4.1-0.5-6.3-0.5c-7.1,0-12.5,2.7-16,8.1l-9.1,46.6h-15.6l13.2-68.1h14.9l-1.1,7.6
			c4.9-5.9,10.7-8.9,17.4-8.9c2.2,0,4,0.3,5.3,0.9L671.6,400.3z"/>
	</g>
</g>
</svg>
